<svg xmlns="http://www.w3.org/2000/svg" viewBox="0 0 1600 1000" width="1600" height="1000" role="img" aria-labelledby="title desc">
<title id="title">Realm Map</title>
<desc id="desc">Stylized test map for Trama map documents.</desc>
<defs>
<linearGradient id="sky" x1="0" y1="0" x2="0" y2="1">
<stop offset="0%" stop-color="#0f1a2b"/>
<stop offset="100%" stop-color="#1f3042"/>
</linearGradient>
<linearGradient id="land" x1="0" y1="0" x2="1" y2="1">
<stop offset="0%" stop-color="#2c5a49"/>
<stop offset="100%" stop-color="#182f2b"/>
</linearGradient>
<linearGradient id="mountains" x1="0" y1="0" x2="0" y2="1">
<stop offset="0%" stop-color="#d6d0c4"/>
<stop offset="100%" stop-color="#736b63"/>
</linearGradient>
</defs>
<rect width="1600" height="1000" fill="url(#sky)"/>
<path d="M81 724c114-156 291-266 518-319 169-40 342-39 510 16 143 46 264 123 409 251v328H81z" fill="#123347"/>
<path d="M133 686c114-128 259-220 434-272 210-62 419-64 624 2 133 43 244 109 347 213v279H133z" fill="url(#land)" stroke="#7fb48e" stroke-opacity=".26" stroke-width="4"/>
<path d="M218 770c81-73 164-119 255-143 93-25 210-29 342-7 170 28 290 23 379-19 78-37 136-95 218-172" fill="none" stroke="#95d7e7" stroke-width="14" stroke-linecap="round" stroke-opacity=".72"/>
<path d="M947 286l74 118-98 2 24-120zm115 45l66 108-89 0 23-108zm102 36l60 95-81 0 21-95zm-806 34l78 121-103 0 25-121zm116 29l71 111-95 0 24-111z" fill="url(#mountains)" stroke="#ece6db" stroke-opacity=".36"/>
<circle cx="342" cy="622" r="86" fill="#d0bf7d" fill-opacity=".14"/>
<circle cx="1167" cy="616" r="110" fill="#d0bf7d" fill-opacity=".12"/>
<circle cx="786" cy="744" r="138" fill="#7b4e8d" fill-opacity=".11"/>
<text x="250" y="164" fill="#f3ead2" font-size="42" font-family="Georgia, serif" letter-spacing="6">REALM MAP</text>
<text x="252" y="206" fill="#c7d8dc" font-size="20" font-family="Segoe UI, sans-serif" letter-spacing="3">TRAMA EXAMPLE PROJECT</text>
<text x="286" y="597" fill="#f5efd8" font-size="28" font-family="Georgia, serif">Lirio-Amanecer</text>
<text x="1040" y="587" fill="#e5f6df" font-size="28" font-family="Georgia, serif">Bosque Encantado</text>
<text x="705" y="834" fill="#f7d7a8" font-size="28" font-family="Georgia, serif">Ruinas del Brasero</text>
</svg>
